<mxfile host="app.diagrams.net" modified="2021-05-21T12:09:45.002Z" agent="5.0 (Macintosh; Intel Mac OS X 10_15_7) AppleWebKit/605.1.15 (KHTML, like Gecko) Version/14.1 Safari/605.1.15" etag="6NoNIS7GSy-ouGnYqnjQ" version="14.7.0" type="github">
  <diagram id="C5RBs43oDa-KdzZeNtuy" name="Page-1">
    <mxGraphModel dx="1061" dy="723" grid="0" gridSize="10" guides="1" tooltips="1" connect="1" arrows="1" fold="1" page="1" pageScale="1" pageWidth="827" pageHeight="1169" background="#ffffff" math="0" shadow="0">
      <root>
        <mxCell id="WIyWlLk6GJQsqaUBKTNV-0" />
        <mxCell id="WIyWlLk6GJQsqaUBKTNV-1" parent="WIyWlLk6GJQsqaUBKTNV-0" />
        <mxCell id="IHjuDItgGOdSkJfU1uL--35" value="" style="rounded=1;whiteSpace=wrap;html=1;fontColor=#000000;fillColor=none;" vertex="1" parent="WIyWlLk6GJQsqaUBKTNV-1">
          <mxGeometry x="513.5" y="860" width="230" height="200" as="geometry" />
        </mxCell>
        <mxCell id="IHjuDItgGOdSkJfU1uL--16" value="" style="rounded=1;whiteSpace=wrap;html=1;fontColor=#000000;fillColor=none;" vertex="1" parent="WIyWlLk6GJQsqaUBKTNV-1">
          <mxGeometry x="516" y="350" width="220" height="210" as="geometry" />
        </mxCell>
        <mxCell id="IHjuDItgGOdSkJfU1uL--4" style="edgeStyle=orthogonalEdgeStyle;rounded=0;orthogonalLoop=1;jettySize=auto;html=1;entryX=1;entryY=0.5;entryDx=0;entryDy=0;" edge="1" parent="WIyWlLk6GJQsqaUBKTNV-1" source="IHjuDItgGOdSkJfU1uL--0" target="IHjuDItgGOdSkJfU1uL--2">
          <mxGeometry relative="1" as="geometry" />
        </mxCell>
        <mxCell id="IHjuDItgGOdSkJfU1uL--0" value="console. log()" style="rounded=0;whiteSpace=wrap;html=1;" vertex="1" parent="WIyWlLk6GJQsqaUBKTNV-1">
          <mxGeometry x="550" y="110" width="120" height="60" as="geometry" />
        </mxCell>
        <mxCell id="IHjuDItgGOdSkJfU1uL--1" value="Animals" style="rounded=0;whiteSpace=wrap;html=1;" vertex="1" parent="WIyWlLk6GJQsqaUBKTNV-1">
          <mxGeometry x="140" y="70" width="340" height="40" as="geometry" />
        </mxCell>
        <mxCell id="IHjuDItgGOdSkJfU1uL--2" value="animalName: string;&lt;br&gt;animalFood: string;&lt;br&gt;animalSound: string;" style="rounded=0;whiteSpace=wrap;html=1;" vertex="1" parent="WIyWlLk6GJQsqaUBKTNV-1">
          <mxGeometry x="140" y="110" width="340" height="60" as="geometry" />
        </mxCell>
        <mxCell id="IHjuDItgGOdSkJfU1uL--3" value="animalInfo(_animalName, _animalFood, _animalSound)&lt;br&gt;animalSing(): Void&lt;br&gt;animalFeed(_foodTypes: string, _foodAmount: number): void" style="rounded=0;whiteSpace=wrap;html=1;" vertex="1" parent="WIyWlLk6GJQsqaUBKTNV-1">
          <mxGeometry x="140" y="170" width="340" height="60" as="geometry" />
        </mxCell>
        <mxCell id="IHjuDItgGOdSkJfU1uL--5" value="AnimalsClassDiagramm" style="text;html=1;strokeColor=none;fillColor=none;align=center;verticalAlign=middle;whiteSpace=wrap;rounded=0;fontStyle=5" vertex="1" parent="WIyWlLk6GJQsqaUBKTNV-1">
          <mxGeometry x="320" y="30" width="150" height="20" as="geometry" />
        </mxCell>
        <mxCell id="IHjuDItgGOdSkJfU1uL--7" value="Animals Activity Diagram" style="text;html=1;strokeColor=none;fillColor=none;align=center;verticalAlign=middle;whiteSpace=wrap;rounded=0;fontStyle=5" vertex="1" parent="WIyWlLk6GJQsqaUBKTNV-1">
          <mxGeometry x="506" y="280" width="240" height="20" as="geometry" />
        </mxCell>
        <mxCell id="IHjuDItgGOdSkJfU1uL--14" style="edgeStyle=orthogonalEdgeStyle;rounded=0;orthogonalLoop=1;jettySize=auto;html=1;entryX=0.5;entryY=0;entryDx=0;entryDy=0;fontColor=#000000;" edge="1" parent="WIyWlLk6GJQsqaUBKTNV-1" source="IHjuDItgGOdSkJfU1uL--9" target="IHjuDItgGOdSkJfU1uL--10">
          <mxGeometry relative="1" as="geometry" />
        </mxCell>
        <mxCell id="IHjuDItgGOdSkJfU1uL--9" value="_animalName: string;&lt;br&gt;_animalFood: string;&lt;br&gt;_animalSound: string;" style="rounded=0;whiteSpace=wrap;html=1;" vertex="1" parent="WIyWlLk6GJQsqaUBKTNV-1">
          <mxGeometry x="566" y="330" width="120" height="60" as="geometry" />
        </mxCell>
        <mxCell id="IHjuDItgGOdSkJfU1uL--15" style="edgeStyle=orthogonalEdgeStyle;rounded=0;orthogonalLoop=1;jettySize=auto;html=1;entryX=0.5;entryY=0;entryDx=0;entryDy=0;fontColor=#000000;" edge="1" parent="WIyWlLk6GJQsqaUBKTNV-1" source="IHjuDItgGOdSkJfU1uL--10" target="IHjuDItgGOdSkJfU1uL--11">
          <mxGeometry relative="1" as="geometry" />
        </mxCell>
        <mxCell id="IHjuDItgGOdSkJfU1uL--10" value="Werte werden den Eigenschaften zugewiesen" style="rounded=1;whiteSpace=wrap;html=1;" vertex="1" parent="WIyWlLk6GJQsqaUBKTNV-1">
          <mxGeometry x="556" y="415" width="140" height="70" as="geometry" />
        </mxCell>
        <mxCell id="IHjuDItgGOdSkJfU1uL--13" value="" style="group" vertex="1" connectable="0" parent="WIyWlLk6GJQsqaUBKTNV-1">
          <mxGeometry x="608" y="510" width="36" height="36" as="geometry" />
        </mxCell>
        <mxCell id="IHjuDItgGOdSkJfU1uL--11" value="" style="ellipse;whiteSpace=wrap;html=1;aspect=fixed;" vertex="1" parent="IHjuDItgGOdSkJfU1uL--13">
          <mxGeometry width="36" height="36" as="geometry" />
        </mxCell>
        <mxCell id="IHjuDItgGOdSkJfU1uL--12" value="" style="ellipse;whiteSpace=wrap;html=1;aspect=fixed;strokeColor=none;fillColor=#000000;" vertex="1" parent="IHjuDItgGOdSkJfU1uL--13">
          <mxGeometry x="5.25" y="5.25" width="25.5" height="25.5" as="geometry" />
        </mxCell>
        <mxCell id="IHjuDItgGOdSkJfU1uL--17" value="animalInfo" style="text;html=1;strokeColor=none;fillColor=none;align=center;verticalAlign=middle;whiteSpace=wrap;rounded=0;fontColor=#000000;" vertex="1" parent="WIyWlLk6GJQsqaUBKTNV-1">
          <mxGeometry x="516" y="390" width="100" height="20" as="geometry" />
        </mxCell>
        <mxCell id="IHjuDItgGOdSkJfU1uL--24" style="edgeStyle=orthogonalEdgeStyle;rounded=0;orthogonalLoop=1;jettySize=auto;html=1;entryX=0.5;entryY=0;entryDx=0;entryDy=0;fontColor=#000000;" edge="1" parent="WIyWlLk6GJQsqaUBKTNV-1" source="IHjuDItgGOdSkJfU1uL--18" target="IHjuDItgGOdSkJfU1uL--19">
          <mxGeometry relative="1" as="geometry" />
        </mxCell>
        <mxCell id="IHjuDItgGOdSkJfU1uL--18" value="console.log(&quot; &quot; + this.animalName)" style="rounded=1;whiteSpace=wrap;html=1;fontColor=#000000;fillColor=none;" vertex="1" parent="WIyWlLk6GJQsqaUBKTNV-1">
          <mxGeometry x="527.5" y="630.5" width="200" height="20" as="geometry" />
        </mxCell>
        <mxCell id="IHjuDItgGOdSkJfU1uL--25" style="edgeStyle=orthogonalEdgeStyle;rounded=0;orthogonalLoop=1;jettySize=auto;html=1;entryX=0.5;entryY=0;entryDx=0;entryDy=0;fontColor=#000000;" edge="1" parent="WIyWlLk6GJQsqaUBKTNV-1" source="IHjuDItgGOdSkJfU1uL--19" target="IHjuDItgGOdSkJfU1uL--22">
          <mxGeometry relative="1" as="geometry" />
        </mxCell>
        <mxCell id="IHjuDItgGOdSkJfU1uL--19" value="console.log (&quot;Old Mac Donald has a Farm&quot; + this.animal Name + this.animalSound)" style="rounded=1;whiteSpace=wrap;html=1;fontColor=#000000;fillColor=none;" vertex="1" parent="WIyWlLk6GJQsqaUBKTNV-1">
          <mxGeometry x="527.5" y="680.5" width="200" height="50" as="geometry" />
        </mxCell>
        <mxCell id="IHjuDItgGOdSkJfU1uL--20" value="animalSing" style="text;html=1;strokeColor=none;fillColor=none;align=center;verticalAlign=middle;whiteSpace=wrap;rounded=0;fontColor=#000000;" vertex="1" parent="WIyWlLk6GJQsqaUBKTNV-1">
          <mxGeometry x="491.5" y="600.5" width="120" height="20" as="geometry" />
        </mxCell>
        <mxCell id="IHjuDItgGOdSkJfU1uL--21" value="" style="group" vertex="1" connectable="0" parent="WIyWlLk6GJQsqaUBKTNV-1">
          <mxGeometry x="607.5" y="760.5" width="36" height="36" as="geometry" />
        </mxCell>
        <mxCell id="IHjuDItgGOdSkJfU1uL--22" value="" style="ellipse;whiteSpace=wrap;html=1;aspect=fixed;" vertex="1" parent="IHjuDItgGOdSkJfU1uL--21">
          <mxGeometry width="36" height="36" as="geometry" />
        </mxCell>
        <mxCell id="IHjuDItgGOdSkJfU1uL--23" value="" style="ellipse;whiteSpace=wrap;html=1;aspect=fixed;strokeColor=none;fillColor=#000000;" vertex="1" parent="IHjuDItgGOdSkJfU1uL--21">
          <mxGeometry x="5.25" y="5.25" width="25.5" height="25.5" as="geometry" />
        </mxCell>
        <mxCell id="IHjuDItgGOdSkJfU1uL--26" value="" style="rounded=1;whiteSpace=wrap;html=1;fontColor=#000000;fillColor=none;" vertex="1" parent="WIyWlLk6GJQsqaUBKTNV-1">
          <mxGeometry x="508.5" y="595.5" width="240" height="205" as="geometry" />
        </mxCell>
        <mxCell id="IHjuDItgGOdSkJfU1uL--33" style="edgeStyle=orthogonalEdgeStyle;rounded=0;orthogonalLoop=1;jettySize=auto;html=1;entryX=0.5;entryY=0;entryDx=0;entryDy=0;fontColor=#000000;" edge="1" parent="WIyWlLk6GJQsqaUBKTNV-1" source="IHjuDItgGOdSkJfU1uL--27" target="IHjuDItgGOdSkJfU1uL--29">
          <mxGeometry relative="1" as="geometry" />
        </mxCell>
        <mxCell id="IHjuDItgGOdSkJfU1uL--27" value="_foodType: string;&lt;br&gt;_foodAmount: number;" style="rounded=0;whiteSpace=wrap;html=1;fontColor=#000000;" vertex="1" parent="WIyWlLk6GJQsqaUBKTNV-1">
          <mxGeometry x="563.5" y="840" width="130" height="60" as="geometry" />
        </mxCell>
        <mxCell id="IHjuDItgGOdSkJfU1uL--34" style="edgeStyle=orthogonalEdgeStyle;rounded=0;orthogonalLoop=1;jettySize=auto;html=1;entryX=0.5;entryY=0;entryDx=0;entryDy=0;fontColor=#000000;" edge="1" parent="WIyWlLk6GJQsqaUBKTNV-1" source="IHjuDItgGOdSkJfU1uL--29" target="IHjuDItgGOdSkJfU1uL--31">
          <mxGeometry relative="1" as="geometry" />
        </mxCell>
        <mxCell id="IHjuDItgGOdSkJfU1uL--29" value="console.log( this.foodType + this.foodAmount)" style="rounded=1;whiteSpace=wrap;html=1;fontColor=#000000;fillColor=none;" vertex="1" parent="WIyWlLk6GJQsqaUBKTNV-1">
          <mxGeometry x="538.5" y="925" width="180" height="60" as="geometry" />
        </mxCell>
        <mxCell id="IHjuDItgGOdSkJfU1uL--30" value="" style="group" vertex="1" connectable="0" parent="WIyWlLk6GJQsqaUBKTNV-1">
          <mxGeometry x="610.5" y="1010" width="36" height="36" as="geometry" />
        </mxCell>
        <mxCell id="IHjuDItgGOdSkJfU1uL--31" value="" style="ellipse;whiteSpace=wrap;html=1;aspect=fixed;" vertex="1" parent="IHjuDItgGOdSkJfU1uL--30">
          <mxGeometry width="36" height="36" as="geometry" />
        </mxCell>
        <mxCell id="IHjuDItgGOdSkJfU1uL--32" value="" style="ellipse;whiteSpace=wrap;html=1;aspect=fixed;strokeColor=none;fillColor=#000000;" vertex="1" parent="IHjuDItgGOdSkJfU1uL--30">
          <mxGeometry x="5.25" y="5.25" width="25.5" height="25.5" as="geometry" />
        </mxCell>
        <mxCell id="IHjuDItgGOdSkJfU1uL--36" value="animalFeed" style="text;html=1;strokeColor=none;fillColor=none;align=center;verticalAlign=middle;whiteSpace=wrap;rounded=0;fontColor=#000000;" vertex="1" parent="WIyWlLk6GJQsqaUBKTNV-1">
          <mxGeometry x="532.5" y="900" width="40" height="20" as="geometry" />
        </mxCell>
        <mxCell id="IHjuDItgGOdSkJfU1uL--43" style="edgeStyle=orthogonalEdgeStyle;rounded=0;orthogonalLoop=1;jettySize=auto;html=1;fontColor=#000000;" edge="1" parent="WIyWlLk6GJQsqaUBKTNV-1" source="IHjuDItgGOdSkJfU1uL--37" target="IHjuDItgGOdSkJfU1uL--38">
          <mxGeometry relative="1" as="geometry" />
        </mxCell>
        <mxCell id="IHjuDItgGOdSkJfU1uL--37" value="" style="ellipse;whiteSpace=wrap;html=1;aspect=fixed;fontColor=#000000;fillColor=#000000;" vertex="1" parent="WIyWlLk6GJQsqaUBKTNV-1">
          <mxGeometry x="95.5" y="312.5" width="29" height="29" as="geometry" />
        </mxCell>
        <mxCell id="IHjuDItgGOdSkJfU1uL--45" style="edgeStyle=orthogonalEdgeStyle;rounded=0;orthogonalLoop=1;jettySize=auto;html=1;entryX=0.5;entryY=0;entryDx=0;entryDy=0;fontColor=#000000;" edge="1" parent="WIyWlLk6GJQsqaUBKTNV-1" source="IHjuDItgGOdSkJfU1uL--38" target="IHjuDItgGOdSkJfU1uL--39">
          <mxGeometry relative="1" as="geometry" />
        </mxCell>
        <mxCell id="IHjuDItgGOdSkJfU1uL--38" value="install load listener" style="rounded=1;whiteSpace=wrap;html=1;fontColor=#000000;fillColor=none;" vertex="1" parent="WIyWlLk6GJQsqaUBKTNV-1">
          <mxGeometry x="50" y="362.5" width="120" height="30" as="geometry" />
        </mxCell>
        <mxCell id="IHjuDItgGOdSkJfU1uL--54" style="edgeStyle=orthogonalEdgeStyle;rounded=0;orthogonalLoop=1;jettySize=auto;html=1;entryX=0.5;entryY=0;entryDx=0;entryDy=0;fontColor=#000000;" edge="1" parent="WIyWlLk6GJQsqaUBKTNV-1" source="IHjuDItgGOdSkJfU1uL--39" target="IHjuDItgGOdSkJfU1uL--48">
          <mxGeometry relative="1" as="geometry" />
        </mxCell>
        <mxCell id="IHjuDItgGOdSkJfU1uL--39" value="class Animal" style="rounded=1;whiteSpace=wrap;html=1;fontColor=#000000;fillColor=none;" vertex="1" parent="WIyWlLk6GJQsqaUBKTNV-1">
          <mxGeometry x="50" y="422.5" width="120" height="30" as="geometry" />
        </mxCell>
        <mxCell id="IHjuDItgGOdSkJfU1uL--55" style="edgeStyle=orthogonalEdgeStyle;rounded=0;orthogonalLoop=1;jettySize=auto;html=1;entryX=0.5;entryY=0;entryDx=0;entryDy=0;fontColor=#000000;" edge="1" parent="WIyWlLk6GJQsqaUBKTNV-1" source="IHjuDItgGOdSkJfU1uL--40" target="IHjuDItgGOdSkJfU1uL--41">
          <mxGeometry relative="1" as="geometry" />
        </mxCell>
        <mxCell id="IHjuDItgGOdSkJfU1uL--40" value="load" style="shape=step;perimeter=stepPerimeter;whiteSpace=wrap;html=1;fixedSize=1;fontColor=#000000;fillColor=none;" vertex="1" parent="WIyWlLk6GJQsqaUBKTNV-1">
          <mxGeometry x="283.7" y="310" width="81.6" height="34" as="geometry" />
        </mxCell>
        <mxCell id="IHjuDItgGOdSkJfU1uL--56" style="edgeStyle=orthogonalEdgeStyle;rounded=0;orthogonalLoop=1;jettySize=auto;html=1;entryX=0.5;entryY=0;entryDx=0;entryDy=0;fontColor=#000000;" edge="1" parent="WIyWlLk6GJQsqaUBKTNV-1" source="IHjuDItgGOdSkJfU1uL--41" target="IHjuDItgGOdSkJfU1uL--51">
          <mxGeometry relative="1" as="geometry" />
        </mxCell>
        <mxCell id="IHjuDItgGOdSkJfU1uL--41" value="handleLoad" style="rounded=1;whiteSpace=wrap;html=1;fontColor=#000000;fillColor=none;" vertex="1" parent="WIyWlLk6GJQsqaUBKTNV-1">
          <mxGeometry x="264.5" y="382.5" width="120" height="60" as="geometry" />
        </mxCell>
        <mxCell id="IHjuDItgGOdSkJfU1uL--42" value="" style="strokeWidth=2;html=1;shape=mxgraph.flowchart.annotation_2;align=left;labelPosition=right;pointerEvents=1;fontColor=#000000;fillColor=none;rotation=90;" vertex="1" parent="WIyWlLk6GJQsqaUBKTNV-1">
          <mxGeometry x="354.5" y="412.5" width="23" height="23" as="geometry" />
        </mxCell>
        <mxCell id="IHjuDItgGOdSkJfU1uL--47" value="" style="group" vertex="1" connectable="0" parent="WIyWlLk6GJQsqaUBKTNV-1">
          <mxGeometry x="92" y="482.5" width="36" height="36" as="geometry" />
        </mxCell>
        <mxCell id="IHjuDItgGOdSkJfU1uL--48" value="" style="ellipse;whiteSpace=wrap;html=1;aspect=fixed;" vertex="1" parent="IHjuDItgGOdSkJfU1uL--47">
          <mxGeometry width="36" height="36" as="geometry" />
        </mxCell>
        <mxCell id="IHjuDItgGOdSkJfU1uL--49" value="" style="ellipse;whiteSpace=wrap;html=1;aspect=fixed;strokeColor=none;fillColor=#000000;" vertex="1" parent="IHjuDItgGOdSkJfU1uL--47">
          <mxGeometry x="5.25" y="5.25" width="25.5" height="25.5" as="geometry" />
        </mxCell>
        <mxCell id="IHjuDItgGOdSkJfU1uL--50" value="" style="group" vertex="1" connectable="0" parent="WIyWlLk6GJQsqaUBKTNV-1">
          <mxGeometry x="308.5" y="472.5" width="36" height="36" as="geometry" />
        </mxCell>
        <mxCell id="IHjuDItgGOdSkJfU1uL--51" value="" style="ellipse;whiteSpace=wrap;html=1;aspect=fixed;" vertex="1" parent="IHjuDItgGOdSkJfU1uL--50">
          <mxGeometry width="36" height="36" as="geometry" />
        </mxCell>
        <mxCell id="IHjuDItgGOdSkJfU1uL--52" value="" style="ellipse;whiteSpace=wrap;html=1;aspect=fixed;strokeColor=none;fillColor=#000000;" vertex="1" parent="IHjuDItgGOdSkJfU1uL--50">
          <mxGeometry x="5.25" y="5.25" width="25.5" height="25.5" as="geometry" />
        </mxCell>
        <mxCell id="IHjuDItgGOdSkJfU1uL--57" value="Activity Diagram Main" style="text;html=1;strokeColor=none;fillColor=none;align=center;verticalAlign=middle;whiteSpace=wrap;rounded=0;fontColor=#000000;fontStyle=5" vertex="1" parent="WIyWlLk6GJQsqaUBKTNV-1">
          <mxGeometry x="94" y="280" width="232" height="20" as="geometry" />
        </mxCell>
        <mxCell id="IHjuDItgGOdSkJfU1uL--69" style="edgeStyle=orthogonalEdgeStyle;rounded=0;orthogonalLoop=1;jettySize=auto;html=1;fontColor=#000000;" edge="1" parent="WIyWlLk6GJQsqaUBKTNV-1" source="IHjuDItgGOdSkJfU1uL--58" target="IHjuDItgGOdSkJfU1uL--59">
          <mxGeometry relative="1" as="geometry" />
        </mxCell>
        <mxCell id="IHjuDItgGOdSkJfU1uL--58" value="var animal1: new Animal(&quot;name&quot;, &quot;food&quot;, &quot;sound&quot;);&lt;br&gt;animal1.animalSing();&lt;br&gt;animal1.animalFood(foodType.foodAmount);" style="rounded=1;whiteSpace=wrap;html=1;fontColor=#000000;fillColor=none;" vertex="1" parent="WIyWlLk6GJQsqaUBKTNV-1">
          <mxGeometry x="81.30000000000001" y="605.5" width="290" height="67.5" as="geometry" />
        </mxCell>
        <mxCell id="IHjuDItgGOdSkJfU1uL--70" style="edgeStyle=orthogonalEdgeStyle;rounded=0;orthogonalLoop=1;jettySize=auto;html=1;entryX=0.5;entryY=0;entryDx=0;entryDy=0;fontColor=#000000;" edge="1" parent="WIyWlLk6GJQsqaUBKTNV-1" source="IHjuDItgGOdSkJfU1uL--59" target="IHjuDItgGOdSkJfU1uL--60">
          <mxGeometry relative="1" as="geometry" />
        </mxCell>
        <mxCell id="IHjuDItgGOdSkJfU1uL--59" value="var animal2: new Animal(&quot;name&quot;, &quot;food&quot;, &quot;sound&quot;);&lt;br&gt;animal2.animalSing();&lt;br&gt;animal2.animalFood(foodType.foodAmount);" style="rounded=1;whiteSpace=wrap;html=1;fontColor=#000000;fillColor=none;" vertex="1" parent="WIyWlLk6GJQsqaUBKTNV-1">
          <mxGeometry x="81.30000000000001" y="705.5" width="290" height="67.5" as="geometry" />
        </mxCell>
        <mxCell id="IHjuDItgGOdSkJfU1uL--71" style="edgeStyle=orthogonalEdgeStyle;rounded=0;orthogonalLoop=1;jettySize=auto;html=1;fontColor=#000000;" edge="1" parent="WIyWlLk6GJQsqaUBKTNV-1" source="IHjuDItgGOdSkJfU1uL--60" target="IHjuDItgGOdSkJfU1uL--61">
          <mxGeometry relative="1" as="geometry" />
        </mxCell>
        <mxCell id="IHjuDItgGOdSkJfU1uL--60" value="var animal3: new Animal(&quot;name&quot;, &quot;food&quot;, &quot;sound&quot;);&lt;br&gt;animal3.animalSing();&lt;br&gt;animal3.animalFood(foodType.foodAmount);" style="rounded=1;whiteSpace=wrap;html=1;fontColor=#000000;fillColor=none;" vertex="1" parent="WIyWlLk6GJQsqaUBKTNV-1">
          <mxGeometry x="81.30000000000001" y="803" width="290" height="67.5" as="geometry" />
        </mxCell>
        <mxCell id="IHjuDItgGOdSkJfU1uL--72" style="edgeStyle=orthogonalEdgeStyle;rounded=0;orthogonalLoop=1;jettySize=auto;html=1;fontColor=#000000;" edge="1" parent="WIyWlLk6GJQsqaUBKTNV-1" source="IHjuDItgGOdSkJfU1uL--61" target="IHjuDItgGOdSkJfU1uL--62">
          <mxGeometry relative="1" as="geometry" />
        </mxCell>
        <mxCell id="IHjuDItgGOdSkJfU1uL--61" value="var animal4: new Animal(&quot;name&quot;, &quot;food&quot;, &quot;sound&quot;);&lt;br&gt;animal4.animalSing();&lt;br&gt;animal4.animalFood(foodType.foodAmount);" style="rounded=1;whiteSpace=wrap;html=1;fontColor=#000000;fillColor=none;" vertex="1" parent="WIyWlLk6GJQsqaUBKTNV-1">
          <mxGeometry x="81.30000000000001" y="905.5" width="290" height="67.5" as="geometry" />
        </mxCell>
        <mxCell id="IHjuDItgGOdSkJfU1uL--73" style="edgeStyle=orthogonalEdgeStyle;rounded=0;orthogonalLoop=1;jettySize=auto;html=1;entryX=0.5;entryY=0;entryDx=0;entryDy=0;fontColor=#000000;" edge="1" parent="WIyWlLk6GJQsqaUBKTNV-1" source="IHjuDItgGOdSkJfU1uL--62" target="IHjuDItgGOdSkJfU1uL--66">
          <mxGeometry relative="1" as="geometry" />
        </mxCell>
        <mxCell id="IHjuDItgGOdSkJfU1uL--62" value="var animal5: new Animal(&quot;name&quot;, &quot;food&quot;, &quot;sound&quot;);&lt;br&gt;animal5.animalSing();&lt;br&gt;animal5.animalFood(foodType.foodAmount);" style="rounded=1;whiteSpace=wrap;html=1;fontColor=#000000;fillColor=none;" vertex="1" parent="WIyWlLk6GJQsqaUBKTNV-1">
          <mxGeometry x="81.30000000000001" y="1005.5" width="290" height="67.5" as="geometry" />
        </mxCell>
        <mxCell id="IHjuDItgGOdSkJfU1uL--68" style="edgeStyle=orthogonalEdgeStyle;rounded=0;orthogonalLoop=1;jettySize=auto;html=1;fontColor=#000000;" edge="1" parent="WIyWlLk6GJQsqaUBKTNV-1" source="IHjuDItgGOdSkJfU1uL--63" target="IHjuDItgGOdSkJfU1uL--58">
          <mxGeometry relative="1" as="geometry" />
        </mxCell>
        <mxCell id="IHjuDItgGOdSkJfU1uL--63" value="" style="ellipse;whiteSpace=wrap;html=1;aspect=fixed;fontColor=#000000;fillColor=#000000;" vertex="1" parent="WIyWlLk6GJQsqaUBKTNV-1">
          <mxGeometry x="209.5" y="555.5" width="29" height="29" as="geometry" />
        </mxCell>
        <mxCell id="IHjuDItgGOdSkJfU1uL--64" value="" style="group" vertex="1" connectable="0" parent="WIyWlLk6GJQsqaUBKTNV-1">
          <mxGeometry x="206" y="1095.5" width="36" height="36" as="geometry" />
        </mxCell>
        <mxCell id="IHjuDItgGOdSkJfU1uL--65" value="" style="ellipse;whiteSpace=wrap;html=1;aspect=fixed;" vertex="1" parent="IHjuDItgGOdSkJfU1uL--64">
          <mxGeometry width="36" height="36" as="geometry" />
        </mxCell>
        <mxCell id="IHjuDItgGOdSkJfU1uL--66" value="" style="ellipse;whiteSpace=wrap;html=1;aspect=fixed;strokeColor=none;fillColor=#000000;" vertex="1" parent="IHjuDItgGOdSkJfU1uL--64">
          <mxGeometry x="5.25" y="5.25" width="25.5" height="25.5" as="geometry" />
        </mxCell>
        <mxCell id="IHjuDItgGOdSkJfU1uL--74" value="" style="rounded=1;whiteSpace=wrap;html=1;fontColor=#000000;fillColor=none;" vertex="1" parent="WIyWlLk6GJQsqaUBKTNV-1">
          <mxGeometry x="50" y="540" width="350" height="605.5" as="geometry" />
        </mxCell>
        <mxCell id="IHjuDItgGOdSkJfU1uL--75" value="handleLoad" style="text;html=1;strokeColor=none;fillColor=none;align=center;verticalAlign=middle;whiteSpace=wrap;rounded=0;fontColor=#000000;" vertex="1" parent="WIyWlLk6GJQsqaUBKTNV-1">
          <mxGeometry x="80" y="570.5" width="80" height="20" as="geometry" />
        </mxCell>
      </root>
    </mxGraphModel>
  </diagram>
</mxfile>
